<svg width="281" height="232" viewBox="0 0 281 232" fill="none" xmlns="http://www.w3.org/2000/svg">
<path d="M230.5 215C231.3 209.4 230.833 204.667 230.5 203C232.9 200.2 234.167 194.833 234.5 192.5C246 191.5 259.5 193 272.5 200.5C285.5 208 275.5 220 270.5 223C265.5 226 249 229.5 239.5 229C230 228.5 229.5 222 230.5 215Z" fill="#F5A625" stroke="#231815" stroke-width="4"/>
<path d="M236.661 220.033C237.512 220.033 238.343 220.478 239.2 220.592C240.208 220.727 241.216 220.886 242.229 221.076C246.494 221.876 251.089 220.959 255.156 219.694C256.159 219.382 257.208 219.234 258.204 218.902C259.051 218.62 259.862 218.212 260.705 217.909C262.009 217.439 263.266 216.915 264.539 216.369C265.555 215.934 266.414 215.281 267.43 214.942" stroke="#231815" stroke-width="3" stroke-linecap="round"/>
<path d="M7.46625 203.012C18.5081 189.698 42.5732 187.043 53.5 188C53.5 188 51.1838 195.904 53 199.5C54.6758 202.818 59 207.5 59 207.5C59.3834 207.691 59.6847 208.063 50.0232 219.082C37.9462 232.856 28.7447 230.56 18.9681 228.265C9.19153 225.969 -6.33601 219.656 7.46625 203.012Z" fill="#F5A625" stroke="#231815" stroke-width="4"/>
<path d="M11.1792 210.613C11.1792 214.761 14.5249 217.062 17.9868 218.471C22.4594 220.291 27.0029 220.927 31.8068 220.927" stroke="#231815" stroke-width="3" stroke-linecap="round"/>
<path d="M93.4999 163C105.5 153.8 122.5 151.167 129 151C131 152 136.5 152.5 145.5 152.5C152.882 152.5 158.65 150.724 160.895 150.032L161 150C190 151.5 212 178.5 212 179C233 179 243 199.5 212 214.5C181.056 229.473 149.116 227.507 116.677 225.511L116.5 225.5C84 223.5 61.4999 208.5 57.4999 202.5C53.4999 196.5 53.9999 191.5 58.9999 185C62.9999 179.8 70.9999 179.167 74.4999 179.5C75.8333 177.833 81.4999 172.2 93.4999 163Z" fill="white"/>
<path d="M76.5 181C64.1 181.4 58.3333 185.5 57 187.5C60.2 179.5 70.6667 177.833 75.5 178C94.3 155.6 118.667 150.833 128.5 151C143.7 154.2 156.667 151.333 161.5 150C182.3 150.8 204.667 169.167 213 178C223 177.6 228.5 183.5 230 186.5C223.2 180.9 214.5 180.5 211 181C173 152.5 166.5 156.5 134.5 156C108.9 155.6 85.1667 172.5 76.5 181Z" fill="#FFE33B"/>
<path fill-rule="evenodd" clip-rule="evenodd" d="M88.7612 156.03L73.7612 167.03C69.2612 168.03 59.2612 171.43 55.2612 177.03C50.2612 184.03 48.2612 193.53 51.7612 201.53C55.2612 209.53 72.7612 221.03 93.7612 225.53C110.561 229.13 133.428 230.363 142.761 230.53C147.018 230.362 151.006 230.288 154.82 230.217C174.514 229.851 189.585 229.571 213.261 217.03C231.766 207.227 235.261 202.53 235.761 188.53C236.161 177.33 219.928 169.863 211.761 167.53L198.261 156.53C201.095 152.696 206.761 143.13 206.761 135.53C206.761 135.258 206.762 134.987 206.762 134.716C206.776 125.508 206.789 116.529 190.761 99.5295C186.95 95.4878 183.353 91.8194 180.061 88.4628C169.101 77.2861 161.53 69.5664 160.761 63.0295C159.961 56.2295 164.095 51.1962 166.261 49.5295C166.928 47.6962 166.761 44.1295 160.761 44.5295C153.261 45.0295 141.261 55.0295 145.761 73.0295C148.56 84.2252 154.647 92.7128 160.173 100.417C163.531 105.1 166.682 109.493 168.761 114.03C169.698 116.073 170.519 117.769 171.228 119.235C174.685 126.378 175.506 128.073 174.261 138.03C173.48 144.277 167.342 147.942 161.355 150.02C190.179 151.72 212 178.502 212 179C233 179 243 199.5 212 214.5C181.056 229.473 149.116 227.507 116.677 225.511L116.5 225.5C84 223.5 61.4999 208.5 57.4999 202.5C53.4999 196.5 53.9999 191.5 58.9999 185C62.9999 179.8 70.9999 179.167 74.4999 179.5C75.8333 177.833 81.4999 172.2 93.4999 163C105.193 154.035 121.634 151.306 128.481 151.018C123.419 149.696 118.313 147.413 114.261 143.53C102.261 132.03 110.761 117.53 115.761 114.03C120.761 110.53 139.761 86.0295 140.261 73.0295C140.761 60.0295 139.261 49.5295 126.261 44.5295C117.819 41.2823 119.92 46.0488 122.294 51.4332C123.576 54.3396 124.937 57.4261 124.761 59.5295C124.261 65.5295 115.761 76.5295 105.261 86.5295C104.876 86.8966 104.481 87.2717 104.078 87.6546C93.5015 97.7035 77.2979 113.099 78.2612 128.03C79.0612 140.43 85.5946 151.863 88.7612 156.03ZM130.148 151.419C130.791 151.598 131.588 151.754 132.539 151.888C131.749 151.753 130.951 151.597 130.148 151.419Z" fill="#231815"/>
<ellipse cx="141.5" cy="129.5" rx="31.5" ry="22.5" fill="#231815"/>
<path d="M128.203 113.963C130.727 115.583 133.744 116.029 132.124 118.553C130.504 121.077 127.145 121.81 124.622 120.19C122.098 118.57 121.365 115.211 122.985 112.687C124.605 110.164 125.68 112.343 128.203 113.963Z" fill="white"/>
<path d="M154.881 115.549C157.697 114.285 159.779 111.937 161.043 114.753C162.306 117.569 161.048 120.876 158.232 122.14C155.416 123.403 152.109 122.145 150.845 119.329C149.581 116.513 152.065 116.813 154.881 115.549Z" fill="white"/>
<ellipse cx="139.658" cy="129.215" rx="15.0815" ry="8.07935" transform="rotate(4.41005 139.658 129.215)" fill="#E60012"/>
<circle cx="128" cy="115" r="3" fill="#231815"/>
<circle cx="155" cy="116" r="3" fill="#231815"/>
<path d="M6.5 14.5C24 11.5 69.1 18.3 109.5 69.5" stroke="url(#paint0_linear_579_3581)" stroke-width="3" stroke-linecap="round"/>
<path d="M174.5 69C180.667 61.1667 200 43.6 228 36" stroke="url(#paint1_linear_579_3581)" stroke-width="3" stroke-linecap="round"/>
<path d="M102.5 33.5L110.5 38.5M113.5 19.5L121 28.5M132 10L135.5 21.5M156 10L151 22M173.5 19.5L165.5 28.5M185.5 36L177 40.5" stroke="black" stroke-width="4" stroke-linecap="round"/>
<circle cx="256.5" cy="20.5" r="19" fill="#E60012" stroke="black" stroke-width="3"/>
<defs>
<linearGradient id="paint0_linear_579_3581" x1="58" y1="13.902" x2="58" y2="69.5" gradientUnits="userSpaceOnUse">
<stop stop-color="#FFBBBB" stop-opacity="0"/>
<stop offset="1" stop-color="#FFBBBB"/>
</linearGradient>
<linearGradient id="paint1_linear_579_3581" x1="201.25" y1="36" x2="201.25" y2="69" gradientUnits="userSpaceOnUse">
<stop stop-color="#FFBBBB"/>
<stop offset="1" stop-color="#FFBBBB" stop-opacity="0"/>
</linearGradient>
</defs>
</svg>
