<svg width="35" height="879" viewBox="0 0 35 879" fill="none" xmlns="http://www.w3.org/2000/svg">
<g clip-path="url(#clip0_42_928)">
<rect width="4.94056" height="41.2426" transform="matrix(-2.78939e-08 1 -0.707107 0.707107 29.1631 159)" fill="#282828"/>
<rect width="4.94056" height="41.2426" transform="matrix(-2.78939e-08 1 -0.707107 0.707107 29.1631 144)" fill="#282828"/>
<rect width="4.94056" height="41.2426" transform="matrix(-2.78939e-08 1 -0.707107 0.707107 29.1631 129)" fill="#282828"/>
<rect width="4.94056" height="41.2426" transform="matrix(-2.78939e-08 1 -0.707107 0.707107 29.1631 114)" fill="#282828"/>
<rect width="4.94056" height="41.2426" transform="matrix(-2.78938e-08 1 -0.707107 0.707107 29.1631 354)" fill="#282828"/>
<rect width="4.94056" height="41.2426" transform="matrix(-2.78939e-08 1 -0.707107 0.707107 29.1631 99)" fill="#282828"/>
<rect width="4.94056" height="41.2426" transform="matrix(-2.78938e-08 1 -0.707107 0.707107 29.1631 339)" fill="#282828"/>
<rect width="4.94056" height="41.2426" transform="matrix(-2.78939e-08 1 -0.707107 0.707107 29.1631 84)" fill="#282828"/>
<rect width="4.94056" height="41.2426" transform="matrix(-2.78938e-08 1 -0.707107 0.707107 29.1631 324)" fill="#282828"/>
<rect width="4.94056" height="41.2426" transform="matrix(-2.78939e-08 1 -0.707107 0.707107 29.1631 69)" fill="#282828"/>
<rect width="4.94056" height="41.2426" transform="matrix(-2.78938e-08 1 -0.707107 0.707107 29.1631 309)" fill="#282828"/>
<rect width="4.94056" height="41.2426" transform="matrix(-2.78939e-08 1 -0.707107 0.707107 29.1631 54)" fill="#282828"/>
<rect width="4.94056" height="41.2426" transform="matrix(-2.78938e-08 1 -0.707107 0.707107 29.1631 294)" fill="#282828"/>
<rect width="4.94056" height="41.2426" transform="matrix(-2.78939e-08 1 -0.707107 0.707107 29.1631 39)" fill="#282828"/>
<rect width="4.94056" height="41.2426" transform="matrix(-2.78938e-08 1 -0.707107 0.707107 29.1631 279)" fill="#282828"/>
<rect width="4.94056" height="41.2426" transform="matrix(-2.78939e-08 1 -0.707107 0.707107 29.1631 24)" fill="#282828"/>
<rect width="4.94056" height="41.2426" transform="matrix(-2.78938e-08 1 -0.707107 0.707107 29.1631 264)" fill="#282828"/>
<rect width="4.94056" height="41.2426" transform="matrix(-2.78939e-08 1 -0.707107 0.707107 29.1631 9)" fill="#282828"/>
<rect width="4.94056" height="41.2426" transform="matrix(-2.78938e-08 1 -0.707107 0.707107 29.1631 249)" fill="#282828"/>
<rect width="4.94056" height="41.2426" transform="matrix(-2.78939e-08 1 -0.707107 0.707107 29.1631 -6)" fill="#282828"/>
<rect width="4.94056" height="41.2426" transform="matrix(-2.78938e-08 1 -0.707107 0.707107 29.1631 234)" fill="#282828"/>
<rect width="4.94056" height="41.2426" transform="matrix(-2.78939e-08 1 -0.707107 0.707107 29.1631 -21)" fill="#282828"/>
<rect width="4.94056" height="41.2426" transform="matrix(-2.78939e-08 1 -0.707107 0.707107 29.1631 219)" fill="#282828"/>
<rect width="4.94056" height="41.2426" transform="matrix(-2.78939e-08 1 -0.707107 0.707107 29.1631 204)" fill="#282828"/>
<rect width="4.94056" height="41.2426" transform="matrix(-2.78939e-08 1 -0.707107 0.707107 29.1631 189)" fill="#282828"/>
<rect width="4.94056" height="41.2426" transform="matrix(-2.78939e-08 1 -0.707107 0.707107 29.1631 174)" fill="#282828"/>
<rect width="4.94056" height="41.2426" transform="matrix(-2.78939e-08 1 -0.707107 0.707107 29.1631 549)" fill="#282828"/>
<rect width="4.94056" height="41.2426" transform="matrix(-2.78939e-08 1 -0.707107 0.707107 29.1631 534)" fill="#282828"/>
<rect width="4.94056" height="41.2426" transform="matrix(-2.78939e-08 1 -0.707107 0.707107 29.1631 519)" fill="#282828"/>
<rect width="4.94056" height="41.2426" transform="matrix(-2.78939e-08 1 -0.707107 0.707107 29.1631 504)" fill="#282828"/>
<rect width="4.94056" height="41.2426" transform="matrix(-2.78938e-08 1 -0.707107 0.707107 29.1631 744)" fill="#282828"/>
<rect width="4.94056" height="41.2426" transform="matrix(-2.78939e-08 1 -0.707107 0.707107 29.1631 489)" fill="#282828"/>
<rect width="4.94056" height="41.2426" transform="matrix(-2.78938e-08 1 -0.707107 0.707107 29.1631 729)" fill="#282828"/>
<rect width="4.94056" height="41.2426" transform="matrix(-2.78939e-08 1 -0.707107 0.707107 29.1631 474)" fill="#282828"/>
<rect width="4.94056" height="41.2426" transform="matrix(-2.78938e-08 1 -0.707107 0.707107 29.1631 714)" fill="#282828"/>
<rect width="4.94056" height="41.2426" transform="matrix(-2.78939e-08 1 -0.707107 0.707107 29.1631 459)" fill="#282828"/>
<rect width="4.94056" height="41.2426" transform="matrix(-2.78938e-08 1 -0.707107 0.707107 29.1631 699)" fill="#282828"/>
<rect width="4.94056" height="41.2426" transform="matrix(-2.78939e-08 1 -0.707107 0.707107 29.1631 444)" fill="#282828"/>
<rect width="4.94056" height="41.2426" transform="matrix(-2.78938e-08 1 -0.707107 0.707107 29.1631 684)" fill="#282828"/>
<rect width="4.94056" height="41.2426" transform="matrix(-2.78939e-08 1 -0.707107 0.707107 29.1631 429)" fill="#282828"/>
<rect width="4.94056" height="41.2426" transform="matrix(-2.78938e-08 1 -0.707107 0.707107 29.1631 669)" fill="#282828"/>
<rect width="4.94056" height="41.2426" transform="matrix(-2.78939e-08 1 -0.707107 0.707107 29.1631 414)" fill="#282828"/>
<rect width="4.94056" height="41.2426" transform="matrix(-2.78938e-08 1 -0.707107 0.707107 29.1631 654)" fill="#282828"/>
<rect width="4.94056" height="41.2426" transform="matrix(-2.78939e-08 1 -0.707107 0.707107 29.1631 399)" fill="#282828"/>
<rect width="4.94056" height="41.2426" transform="matrix(-2.78938e-08 1 -0.707107 0.707107 29.1631 639)" fill="#282828"/>
<rect width="4.94056" height="41.2426" transform="matrix(-2.78939e-08 1 -0.707107 0.707107 29.1631 384)" fill="#282828"/>
<rect width="4.94056" height="41.2426" transform="matrix(-2.78938e-08 1 -0.707107 0.707107 29.1631 624)" fill="#282828"/>
<rect width="4.94056" height="41.2426" transform="matrix(-2.78939e-08 1 -0.707107 0.707107 29.1631 369)" fill="#282828"/>
<rect width="4.94056" height="41.2426" transform="matrix(-2.78939e-08 1 -0.707107 0.707107 29.1631 609)" fill="#282828"/>
<rect width="4.94056" height="41.2426" transform="matrix(-2.78939e-08 1 -0.707107 0.707107 29.1631 594)" fill="#282828"/>
<rect width="4.94056" height="41.2426" transform="matrix(-2.78939e-08 1 -0.707107 0.707107 29.1631 579)" fill="#282828"/>
<rect width="4.94056" height="41.2426" transform="matrix(-2.78939e-08 1 -0.707107 0.707107 29.1631 564)" fill="#282828"/>
<rect width="4.94056" height="41.2426" transform="matrix(-2.78939e-08 1 -0.707107 0.707107 29.1631 849)" fill="#282828"/>
<rect width="4.94056" height="41.2426" transform="matrix(-2.78939e-08 1 -0.707107 0.707107 29.1631 834)" fill="#282828"/>
<rect width="4.94056" height="41.2426" transform="matrix(-2.78939e-08 1 -0.707107 0.707107 29.1631 819)" fill="#282828"/>
<rect width="4.94056" height="41.2426" transform="matrix(-2.78939e-08 1 -0.707107 0.707107 29.1631 804)" fill="#282828"/>
<rect width="4.94056" height="41.2426" transform="matrix(-2.78939e-08 1 -0.707107 0.707107 29.1631 789)" fill="#282828"/>
<rect width="4.94056" height="41.2426" transform="matrix(-2.78939e-08 1 -0.707107 0.707107 29.1631 774)" fill="#282828"/>
<rect width="4.94056" height="41.2426" transform="matrix(-2.78939e-08 1 -0.707107 0.707107 29.1631 759)" fill="#282828"/>
<rect x="7" y="5" width="4" height="874" fill="#282828"/>
<rect x="18" width="4" height="879" fill="#282828"/>
<rect x="27" y="-23" width="8" height="902" fill="#F5BC41"/>
</g>
<defs>
<clipPath id="clip0_42_928">
<rect width="35" height="879" fill="white"/>
</clipPath>
</defs>
</svg>
