<svg width="128" height="77" viewBox="0 0 128 77" fill="none" xmlns="http://www.w3.org/2000/svg">
<path d="M3.13831 11.8325C6.84272 4.50244 17.8602 2.36846 45.2009 6.57472C46.8633 6.83048 48.5322 7.18505 50.2009 7.62625C53.792 5.1726 62.4465 0.685927 68.3352 2.36843C75.6962 4.47156 77.7993 7.62623 79.9024 9.72936C82.0056 11.8325 79.0566 19.1934 77.3764 21.2966C86.7553 27.9805 94.5171 35.3936 98.8307 40.2248C103.387 37.4206 113.973 32.2329 119.862 33.9154C127.223 36.0185 127.223 45.4826 123.017 49.6888C119.652 53.0538 111.8 53.194 108.295 52.8435C110.398 54.2456 114.814 57.891 115.656 61.256C116.707 65.4623 117.759 75.9779 105.14 74.9264C95.045 74.0851 92.5212 61.256 92.5212 54.9467C86.089 55.3487 77.9663 55.1359 69.3868 54.3084C55.5245 52.9714 40.4698 50.0294 29.4274 45.4826C11.5508 38.1216 -2 22 3.13831 11.8325Z" fill="#F7C8DC"/>
<path d="M50.2009 7.62625C48.5322 7.18505 46.8633 6.83048 45.2009 6.57472C17.8602 2.36846 6.84272 4.50244 3.13831 11.8325C-2 22 11.5508 38.1216 29.4274 45.4826C40.4698 50.0294 55.5245 52.9714 69.3868 54.3084M50.2009 7.62625C53.792 5.1726 62.4465 0.685927 68.3352 2.36843C75.6962 4.47156 77.7993 7.62623 79.9024 9.72936C82.0056 11.8325 79.0566 19.1934 77.3764 21.2966M50.2009 7.62625C53.1036 8.39374 56.0055 9.42337 58.8711 10.651M77.3764 21.2966C86.7553 27.9805 94.5171 35.3936 98.8307 40.2248C103.387 37.4206 113.973 32.2329 119.862 33.9154C127.223 36.0185 127.223 45.4826 123.017 49.6888C119.652 53.0538 111.8 53.194 108.295 52.8435C110.398 54.2456 114.814 57.891 115.656 61.256C116.707 65.4623 117.759 75.9779 105.14 74.9264C95.045 74.0851 92.5212 61.256 92.5212 54.9467C86.089 55.3487 77.9663 55.1359 69.3868 54.3084M77.3764 21.2966C74.8209 19.4754 72.1454 17.7083 69.3868 16.0624M43.0977 13.9356C44.4998 20.245 44.5699 34.3361 33.6336 40.2248M58.8711 10.651L63.0774 7.62625M58.8711 10.651C60.6404 11.4089 62.3958 12.2422 64.129 13.136M64.129 13.136L69.3868 8.67779M64.129 13.136C65.9079 14.0533 67.6636 15.0342 69.3868 16.0624M69.3868 16.0624L74.6446 11.8325M59.9227 19.1934C64.129 25.1523 73.3827 39.8041 76.7477 50.7404M51.5102 24.4513C55.7165 29.6341 65.1805 42.8616 69.3868 54.3084" stroke="black" stroke-width="2.5"/>
<path d="M47.3036 36.0187C49.7573 38.8228 55.0852 46.1137 56.7677 52.8437M71.4896 23.3999C66.9328 27.9567 55.0852 37.9115 44.1489 41.2765M79.9021 30.7609C76.7474 34.2661 66.0215 42.7487 48.3552 48.6374M87.2631 38.1218C83.0568 41.9775 71.6999 50.3199 59.9224 52.8437M105.14 44.4312C106.542 43.3796 110.397 40.8559 114.604 39.1734M108.294 48.6374C110.748 48.2869 116.076 47.1653 117.758 45.4828M104.088 57.05C104.439 59.1531 105.771 63.78 108.294 65.4625M98.8303 59.1531C98.8303 61.4154 99.4612 66.265 101.985 67.5656" stroke="black" stroke-width="2.5"/>
<circle cx="26.2724" cy="18.142" r="7.16251" fill="white" stroke="black" stroke-width="2.5"/>
<circle cx="25.2211" cy="19.1933" r="3.15469" fill="black"/>
</svg>
