<svg width="154" height="168" viewBox="0 0 154 168" fill="none" xmlns="http://www.w3.org/2000/svg">
<path d="M26.4166 93.0757C26.0166 69.4757 42.5832 51.5757 50.9166 45.5757C63.9159 55.5757 79.9173 48.0757 82.4173 47.0757C85.4173 48.5757 96.4173 62.5757 96.9173 82.5757C99.7173 112.976 105.751 126.909 108.417 130.076C110.917 121.576 116.417 121.076 119.417 123.576C122.417 126.076 121.917 136.576 127.917 135.076L128.105 135.029C134.273 133.485 151.427 129.193 152.417 140.576C153.217 149.776 134.167 149.076 125.667 147.576C135.918 159.576 118.917 176.576 94.6369 155.576C77.1369 163.076 66.4173 162.076 56.9173 159.576C49.049 156.508 43.2438 152.445 38.9513 147.576C35.4846 150.576 23.918 155.576 20.918 155.576C17.918 155.576 3.41726 156.576 1.91726 147.576C0.417262 138.576 8.41726 138.076 15.9173 134.576C21.9173 131.776 26.6896 125.698 28.3258 123.009C26.7779 113.867 26.5972 103.732 26.4166 93.0757Z" fill="#A3A8AA"/>
<path d="M94.6369 155.576C77.1369 163.076 66.4173 162.076 56.9173 159.576C49.049 156.508 43.2437 152.445 38.9513 147.576M94.6369 155.576C75.418 138.953 71.4173 112.576 71.9173 97.0757C72.3173 84.6757 69.4173 77.2424 67.9173 75.0757M94.6369 155.576C118.917 176.576 135.918 159.576 125.667 147.576M125.667 147.576C134.167 149.076 153.217 149.776 152.417 140.576C151.417 129.076 133.917 133.576 127.917 135.076C121.917 136.576 122.417 126.076 119.417 123.576C116.417 121.076 110.917 121.576 108.417 130.076M125.667 147.576C119.667 143.976 109.417 132.409 108.417 130.076M108.417 130.076C105.751 126.909 99.7173 112.976 96.9173 82.5757C96.4173 62.5757 85.4173 48.5757 82.4173 47.0757C79.9173 48.0757 63.9159 55.5757 50.9166 45.5757C42.5832 51.5757 26.0166 69.4757 26.4166 93.0757C26.5972 103.732 26.7779 113.867 28.3258 123.009M28.3258 123.009C26.6896 125.698 21.9173 131.776 15.9173 134.576C8.41726 138.076 0.417262 138.576 1.91726 147.576C3.41726 156.576 17.918 155.576 20.918 155.576C23.918 155.576 35.4846 150.576 38.9513 147.576M28.3258 123.009C29.9198 132.423 32.9639 140.784 38.9513 147.576" stroke="black" stroke-width="3"/>
<ellipse cx="51.918" cy="4.57568" rx="6" ry="4.5" fill="black"/>
<path d="M41.4175 32.0757C39.0175 18.0757 44.7508 9.24235 47.9175 6.57568H54.918C56.418 8.90902 61.218 13.1757 68.418 11.5757C77.418 9.57568 94.918 11.5757 92.418 31.5757C90.418 47.5757 73.5846 50.909 65.418 50.5757C58.4178 50.2424 43.8175 46.0757 41.4175 32.0757Z" fill="#A3A8AA" stroke="black" stroke-width="3"/>
<path d="M41.918 19.0757C42.2513 23.2424 45.318 31.7757 54.918 32.5757" stroke="black" stroke-width="3" stroke-linecap="round"/>
<circle cx="65.918" cy="25.0757" r="6" fill="white"/>
<circle cx="64.918" cy="24.0757" r="4" fill="black"/>
</svg>
