<svg width="123" height="174" viewBox="0 0 123 174" fill="none" xmlns="http://www.w3.org/2000/svg">
<path d="M41.2343 3.07559C53.6343 -0.924415 63.0677 7.24229 66.2344 11.0756C68.2344 11.0756 71.8344 12.3756 70.2344 23.5756C68.2344 37.5756 53.2344 40.0756 44.2344 42.0756C35.2344 44.0756 21.2343 43.0756 20.2343 29.5756C19.2343 16.0756 25.7343 8.07559 41.2343 3.07559Z" fill="black" stroke="black" stroke-width="3"/>
<path d="M15.2343 158.576C13.6343 149.376 22.5676 147.409 27.2343 147.576C38.4342 155.576 54.7343 152.909 61.7344 150.076C61.7344 150.076 65.949 149.05 68.2344 147.576C69.7471 146.6 71.7344 144.576 71.7344 144.576C73.2344 144.909 75.598 146.572 80.7344 143.576C86.7344 140.076 93.3625 140.109 96.2344 147.576C98.7344 154.076 90.5881 165.576 77.6612 162.076C73.7045 172.411 57.0234 171.104 45.2344 171.576C32.7344 172.076 17.2343 170.076 15.2343 158.576Z" fill="#FFA629"/>
<path d="M61.7344 150.076C67.901 149.576 80.2344 150.076 78.2344 160.076C78.0922 160.787 77.8998 161.452 77.6612 162.076M61.7344 150.076C54.7343 152.909 38.4342 155.576 27.2343 147.576C22.5676 147.409 13.6343 149.376 15.2343 158.576C17.2343 170.076 32.7344 172.076 45.2344 171.576C57.0234 171.104 73.7045 172.411 77.6612 162.076M61.7344 150.076C61.7344 150.076 65.949 149.05 68.2344 147.576C69.7471 146.6 71.7344 144.576 71.7344 144.576C73.2344 144.909 75.598 146.572 80.7344 143.576C86.7344 140.076 93.3625 140.109 96.2344 147.576C98.7344 154.076 90.5881 165.576 77.6612 162.076" stroke="black" stroke-width="3"/>
<path d="M9.73438 81.822L61.8237 43.0757C66.3752 46.3873 76.7931 56.6866 82.0526 71.3903C88.627 89.77 89.1327 117.091 78.0068 137.458C69.1061 153.751 44.9663 153.188 34.009 150.87L9.73438 118.581V81.822Z" fill="white"/>
<path d="M53.406 95.6414C53.406 54.8898 62.9583 47.6983 67.7344 49.1965C66.6597 46.0003 64.3015 45.8672 63.2568 46.2001C44.4508 49.1965 48.0329 99.1373 49.8239 116.617C51.2568 130.6 42.3612 145.416 37.7344 151.076H44.4508C58.3314 132.598 54.7493 118.614 53.406 95.6414Z" fill="#FFE33B"/>
<path fill-rule="evenodd" clip-rule="evenodd" d="M30.2334 42.0756C24.2334 43.7423 10.5334 55.0756 3.73342 87.0756C-4.76658 127.076 20.2334 147.076 30.2334 150.076C31.473 150.447 32.9968 150.819 34.7344 151.146C38.3351 150.803 42.9014 141.623 44.7344 137.076C18.7344 122.076 13.7344 94.0756 13.7344 90.5756C13.7344 87.7756 16.0677 89.0756 17.2344 90.0756C18.7344 99.5756 27.7344 121.576 46.2344 134.076C64.7344 146.576 72.7344 131.076 61.7344 113.576C61.3159 112.91 60.9083 112.263 60.5114 111.633C50.476 95.7057 47.3105 90.6816 49.2344 68.0756C50.8344 49.2756 60.5677 45.0115 65.2344 45.2294C71.0225 49.8195 77.2263 57.1913 80.6366 68.0364C83.723 67.5041 93.8884 61.5618 107.234 51.0756C126.234 34.0756 121.234 23.0756 116.734 19.0756C112.234 15.0756 104.234 17.0756 90.7344 28.5756C79.9344 37.7756 65.2344 40.885 59.2344 41.2897C57.7339 40.5019 56.3727 39.9365 55.2344 39.5756L30.2334 42.0756Z" fill="black"/>
<path d="M34.7344 151.146C32.9968 150.819 31.473 150.447 30.2334 150.076C20.2334 147.076 -4.76658 127.076 3.73342 87.0756C10.5334 55.0756 24.2334 43.7423 30.2334 42.0756L55.2344 39.5756C56.3727 39.9365 57.7339 40.5019 59.2344 41.2897M34.7344 151.146C47.0148 153.458 69.9739 153.535 78.7344 135.576C88.7344 115.076 88.2344 90.0756 81.7344 72.0756C81.2475 70.7273 81.0443 69.3328 80.6366 68.0364M34.7344 151.146C38.3351 150.803 42.9014 141.623 44.7344 137.076C18.7344 122.076 13.7344 94.0756 13.7344 90.5756C13.7344 87.7756 16.0677 89.0756 17.2344 90.0756C18.7344 99.5756 27.7344 121.576 46.2344 134.076C64.7344 146.576 72.7344 131.076 61.7344 113.576C61.3159 112.91 60.9083 112.263 60.5114 111.633C50.476 95.7057 47.3105 90.6816 49.2344 68.0756C50.8344 49.2756 60.5677 45.0115 65.2344 45.2294M65.2344 45.2294C63.1277 43.5588 61.0761 42.2566 59.2344 41.2897M65.2344 45.2294C71.0225 49.8195 77.2263 57.1913 80.6366 68.0364M59.2344 41.2897C65.2344 40.885 79.9344 37.7756 90.7344 28.5756C104.234 17.0756 112.234 15.0756 116.734 19.0756C121.234 23.0756 126.234 34.0756 107.234 51.0756C93.8884 61.5618 83.723 67.5041 80.6366 68.0364M80.2344 68.0756C80.3512 68.0756 80.4854 68.0625 80.6366 68.0364" stroke="black" stroke-width="3"/>
<path d="M77.7344 12.0756C75.3344 8.87564 68.7344 10.0756 65.7344 11.0756C66.2344 21.0757 70.2344 24.0756 70.7344 24.0756C75.7344 22.5756 80.7344 16.0756 77.7344 12.0756Z" fill="#FF0000" stroke="black" stroke-width="3"/>
<ellipse cx="58.3807" cy="17.4646" rx="4.5" ry="5.5" transform="rotate(-13.3231 58.3807 17.4646)" fill="white"/>
<circle cx="59.7344" cy="17.0757" r="3" fill="black"/>
</svg>
