<?xml version="1.0" standalone="no"?>
<!DOCTYPE svg PUBLIC "-//W3C//DTD SVG 20010904//EN"
 "http://www.w3.org/TR/2001/REC-SVG-20010904/DTD/svg10.dtd">
<svg version="1.0" xmlns="http://www.w3.org/2000/svg"
 width="770.000000pt" height="433.000000pt" viewBox="0 0 770.000000 433.000000"
 preserveAspectRatio="xMidYMid meet">

<g transform="translate(0.000000,433.000000) scale(0.100000,-0.100000)"
fill="#000000" stroke="none">
<path d="M370 2165 l0 -2165 3480 0 3480 0 0 2165 0 2165 -3480 0 -3480 0 0
-2165z m2728 1713 l2 -408 -245 0 -245 0 0 410 0 410 243 -2 242 -3 3 -407z
m1962 2 l0 -410 -245 0 -245 0 0 395 c1 218 3 402 6 410 5 11 50 14 245 15
l239 1 0 -411z m-1140 240 l0 -81 -82 3 -83 3 -3 78 -3 77 86 0 85 0 0 -80z
m-2 -327 l-3 -78 -80 0 -80 0 -3 78 -3 77 86 0 86 0 -3 -77z m0 -325 l3 -76
-38 -5 c-33 -4 -70 -4 -120 2 -14 1 -19 142 -6 155 4 4 41 5 83 4 l75 -3 3
-77z m-3230 -468 c1 -168 0 -315 -3 -328 -5 -22 -9 -23 -83 -20 l-77 3 -3 328
-2 328 82 -3 83 -3 3 -305z m3232 140 l0 -80 -85 0 -85 0 0 73 c0 41 3 77 7
80 3 4 42 7 85 7 l78 0 0 -80z m0 -330 l0 -80 -85 0 -85 0 0 80 0 80 85 0 85
0 0 -80z m0 -330 l0 -81 -82 3 -83 3 -3 78 -3 77 86 0 85 0 0 -80z m-20 -249
c19 -1 21 -7 18 -78 l-3 -78 -80 0 -80 0 -3 77 -3 77 28 3 c26 3 70 3 123 -1z
m18 -403 l3 -76 -69 -4 c-106 -5 -102 -8 -102 76 0 40 3 76 7 80 4 4 41 5 83
4 l75 -3 3 -77z m2 -328 l0 -80 -85 0 -85 0 0 73 c0 41 3 77 7 80 3 4 42 7 85
7 l78 0 0 -80z m3178 -262 l2 -328 -80 0 -80 0 0 330 0 331 78 -3 77 -3 3
-327z m-3178 -68 l0 -80 -85 0 -85 0 0 80 0 80 85 0 85 0 0 -80z m0 -330 l0
-81 -82 3 -83 3 -3 78 -3 77 86 0 85 0 0 -80z m-5 -325 l0 -80 -80 0 -80 0 -3
69 c-2 38 -1 74 2 81 3 8 30 12 83 11 l78 -1 0 -80z m733 -72 l3 -83 -81 0
-80 0 0 79 c0 91 -1 90 95 88 l60 -2 3 -82z m-730 -255 l3 -78 -86 0 -85 0 0
73 c0 41 3 77 7 81 4 4 41 5 83 4 l75 -3 3 -77z"/>
<path d="M2770 3875 l0 -245 79 0 c59 0 80 4 84 14 7 17 6 445 -1 464 -3 8
-29 12 -83 12 l-79 0 0 -245z"/>
<path d="M4740 4040 l0 -80 80 0 80 0 0 80 0 80 -80 0 -80 0 0 -80z"/>
<path d="M4740 3710 l0 -80 80 0 80 0 0 80 0 80 -80 0 -80 0 0 -80z"/>
</g>
</svg>
